<svg xmlns="http://www.w3.org/2000/svg" width="122" height="20" viewBox="0 0 122 20">
    <g fill="none" fill-rule="evenodd">
        <g fill="#000">
            <path d="M55.19 8.333c-.403.446-1.274.769-2.184.769-2.079 0-3.516-1.367-3.516-3.435 0-1.908 1.198-3.435 3.506-3.435.89 0 1.647.303 2.05.693l-.68 1.138c-.364-.218-.738-.408-1.37-.408-1.034 0-1.877.702-1.877 2.012 0 1.176.823 2.011 2.03 2.011.48 0 1.006-.152 1.456-.484l.585 1.139zM57.804 3.769v1.47h.556c.584 0 1.044-.208 1.044-.768 0-.37-.192-.72-.93-.72-.23 0-.354.008-.67.018zm-1.532 5.219V2.346c.373 0 2.088-.02 2.28-.02 1.829 0 2.48.902 2.48 2.126 0 1.234-.766 1.737-1.13 1.917l1.954 2.619h-1.858l-1.629-2.325h-.565v2.325h-1.532zM65.486 6.283v2.705h-1.533V6.283l-2.356-3.937h1.753l1.436 2.514 1.418-2.514h1.657zM70.284 3.769v1.518c.22.029.479.048.7.048.402 0 .9-.171.9-.816 0-.589-.383-.769-.93-.769-.2 0-.354.01-.67.019zm-1.533 5.219V2.346c.374 0 1.533-.02 2.05-.02 2.04 0 2.711 1.054 2.711 2.202 0 1.186-.93 2.23-2.48 2.23-.144 0-.509 0-.748-.029v2.259h-1.533zM73.904 2.346h5.556v1.423h-2.011v5.219h-1.533V3.769h-2.012zM83.243 7.678c1.274 0 1.935-.892 1.935-2.011 0-1.215-.852-2.012-1.935-2.012-1.111 0-1.935.797-1.935 2.012 0 1.138.862 2.011 1.935 2.011m0-5.446c2.04 0 3.563 1.319 3.563 3.435 0 2.011-1.523 3.435-3.563 3.435s-3.563-1.32-3.563-3.435c0-1.926 1.427-3.435 3.563-3.435M95.244 8.333c-.402.446-1.274.769-2.184.769-2.078 0-3.515-1.367-3.515-3.435 0-1.908 1.197-3.435 3.506-3.435.89 0 1.647.303 2.05.693l-.68 1.138c-.364-.218-.738-.408-1.37-.408-1.035 0-1.878.702-1.878 2.012 0 1.176.824 2.011 2.031 2.011.48 0 1.006-.152 1.456-.484l.584 1.139zM96.326 2.346h1.533v5.218h2.73v1.424h-4.263zM104.43 7.678c1.273 0 1.934-.892 1.934-2.011 0-1.215-.852-2.012-1.934-2.012-1.112 0-1.935.797-1.935 2.012 0 1.138.862 2.011 1.935 2.011m0-5.446c2.04 0 3.563 1.319 3.563 3.435 0 2.011-1.523 3.435-3.563 3.435s-3.564-1.32-3.564-3.435c0-1.926 1.428-3.435 3.564-3.435M114.831 6.245c0 2.03-1.302 2.856-2.74 2.856-1.723 0-2.92-.977-2.92-2.922V2.346h1.532v3.51c0 1.035.316 1.822 1.389 1.822.929 0 1.207-.674 1.207-1.736V2.346h1.532v3.9zM118.02 3.769v3.795c.202.02.336.02.556.02 1.322 0 2.165-.712 2.165-1.974 0-1.224-.91-1.87-2.155-1.87-.163 0-.374 0-.565.029zm-1.532-1.423h.134c.354 0 1.542-.029 1.983-.029 2.682 0 3.764 1.528 3.764 3.293 0 1.86-1.283 3.397-3.84 3.397-.355 0-1.237-.02-1.878-.02h-.163V2.347zM50.113 12.343h.824l2.519 3.407 2.414-3.407h.776v6.642h-.815v-5.37l-2.375 3.302h-.125l-2.404-3.274v5.342h-.814zM58.877 18.985h.814v-6.642h-.814zM66.875 18.985l-4.186-5.218v5.218h-.766v-6.642h.65l4.187 5.238v-5.238h.766v6.642zM69.566 12.343h3.783v.76h-2.97v2.144h2.683v.759H70.38v2.22h3.065v.76h-3.88zM75.916 13.102v2.467h.986c.776 0 1.523-.474 1.523-1.261 0-.684-.383-1.224-1.57-1.224-.211 0-.623.009-.94.018zm-.814 5.883v-6.642c.373 0 1.609-.019 1.8-.019 1.83 0 2.386.902 2.386 1.974 0 1.034-.719 1.689-1.456 1.879l2.231 2.808h-.996l-2.06-2.656h-1.091v2.656h-.814zM80.925 13.985c0-.958.747-1.737 2.021-1.737.776 0 1.466.276 1.849.693l-.44.607c-.355-.35-.777-.54-1.361-.54-.747 0-1.207.389-1.207.977 0 1.641 3.276 1.025 3.276 3.292 0 1.091-.967 1.803-2.184 1.803-.824 0-1.782-.37-2.117-.996l.47-.55c.392.512 1.092.787 1.657.787.699 0 1.312-.36 1.312-1.034 0-1.623-3.276-1.1-3.276-3.302"/>
        </g>
        <path fill="#CCC" d="M45.707 1.243h-.259v-.39h.259c.153 0 .239.076.239.198 0 .121-.086.192-.24.192zm.264.169a.375.375 0 0 0 .22-.36c0-.25-.167-.419-.517-.419h-.465v1.214h.24v-.38h.21c.034 0 .081-.003.081-.003l.192.383h.278l-.239-.435zm-.264-.169h-.259v-.39h.259c.153 0 .239.076.239.198 0 .121-.086.192-.24.192zm.264.169a.375.375 0 0 0 .22-.36c0-.25-.167-.419-.517-.419h-.465v1.214h.24v-.38h.21c.034 0 .081-.003.081-.003l.192.383h.278l-.239-.435zm-.264-.169h-.259v-.39h.259c.153 0 .239.076.239.198 0 .121-.086.192-.24.192zm.484-.192c0-.25-.167-.418-.517-.418h-.465v1.214h.24v-.38h.21c.034 0 .081-.003.081-.003l.192.383h.278l-.239-.435a.375.375 0 0 0 .22-.36zm-.531 1.196c-.613 0-1.007-.413-1.007-1.01 0-.594.394-1.007 1.007-1.007.613 0 1.01.413 1.01 1.007 0 .597-.397 1.01-1.01 1.01zm0-2.247c-.752 0-1.265.558-1.265 1.237 0 .685.513 1.24 1.265 1.24.756 0 1.263-.555 1.263-1.24C46.923.558 46.416 0 45.66 0zm.047 1.243h-.259v-.39h.259c.153 0 .239.076.239.198 0 .121-.086.192-.24.192zm.264.169a.375.375 0 0 0 .22-.36c0-.25-.167-.419-.517-.419h-.465v1.214h.24v-.38h.21c.034 0 .081-.003.081-.003l.192.383h.278l-.239-.435zm-.264-.169h-.259v-.39h.259c.153 0 .239.076.239.198 0 .121-.086.192-.24.192zm.264.169a.375.375 0 0 0 .22-.36c0-.25-.167-.419-.517-.419h-.465v1.214h.24v-.38h.21c.034 0 .081-.003.081-.003l.192.383h.278l-.239-.435z"/>
        <path fill="#01C4FF" d="M14.216 15.811a7.104 7.104 0 0 1-4.385 1.506c-3.879 0-7.034-3.092-7.034-6.89 0-3.8 3.155-6.89 7.034-6.89 1.656 0 3.181.563 4.385 1.504a9.603 9.603 0 0 1 1.802-1.929A9.777 9.777 0 0 0 9.831.922C4.48.923.128 5.187.128 10.427c0 5.24 4.353 9.504 9.703 9.504 2.349 0 4.507-.822 6.187-2.19a9.603 9.603 0 0 1-1.802-1.929m3.606-10.767a6.938 6.938 0 0 0-1.801 2.105c.54.975.849 2.092.849 3.277 0-1.555.697-2.954 1.802-3.913a9.396 9.396 0 0 0-.85-1.47"/>
        <path fill="#016AEC" d="M28.393 17.74a9.774 9.774 0 0 1-6.187 2.19 9.777 9.777 0 0 1-6.188-2.19 9.603 9.603 0 0 1-2.653-3.4 5.172 5.172 0 0 0 1.802-3.914 6.74 6.74 0 0 0 .854 3.278 6.938 6.938 0 0 0 1.8 2.105 7.085 7.085 0 0 0 4.385 1.507 7.1 7.1 0 0 0 4.384-1.505 9.637 9.637 0 0 0 1.803 1.93"/>
        <path fill="#016AEC" d="M31.046 6.513a5.172 5.172 0 0 0-1.802 3.913 6.73 6.73 0 0 0-.85-3.28 6.964 6.964 0 0 0-1.804-2.105 7.1 7.1 0 0 0-4.384-1.505 7.085 7.085 0 0 0-4.384 1.508 6.938 6.938 0 0 0-1.801 2.105 6.74 6.74 0 0 0-.854 3.277 5.172 5.172 0 0 0-1.802-3.913 9.603 9.603 0 0 1 2.654-3.401 9.777 9.777 0 0 1 6.187-2.19c2.35 0 4.506.823 6.187 2.19a9.58 9.58 0 0 1 2.653 3.401"/>
        <path fill="#01C4FF" d="M9.83 13.04c-1.47 0-2.667-1.173-2.667-2.614 0-1.44 1.197-2.613 2.668-2.613 1.47 0 2.673 1.172 2.673 2.613S11.302 13.04 9.83 13.04m3.534-6.527A5.377 5.377 0 0 0 9.83 5.2c-2.942 0-5.337 2.345-5.337 5.227s2.395 5.227 5.337 5.227a5.377 5.377 0 0 0 3.534-1.314 5.172 5.172 0 0 0 1.802-3.913 5.172 5.172 0 0 0-1.802-3.913"/>
        <path fill="#016AEC" d="M22.206 13.04c-1.47 0-2.671-1.173-2.671-2.614 0-1.44 1.2-2.613 2.671-2.613 1.471 0 2.67 1.172 2.67 2.613s-1.199 2.614-2.67 2.614m3.534-6.527A5.377 5.377 0 0 0 22.206 5.2a5.377 5.377 0 0 0-3.534 1.314 9.287 9.287 0 0 1 .863 3.913c0 1.394-.31 2.72-.863 3.913a5.377 5.377 0 0 0 3.534 1.314 5.377 5.377 0 0 0 3.534-1.314 9.27 9.27 0 0 1-.863-3.913c0-1.393.31-2.719.863-3.913"/>
        <path fill="#0142EC" d="M19.535 10.426c0 1.394-.31 2.72-.863 3.913a5.171 5.171 0 0 1-1.802-3.913c0-1.555.697-2.954 1.802-3.913a9.289 9.289 0 0 1 .863 3.913M27.543 10.426a5.172 5.172 0 0 1-1.803 3.913 9.268 9.268 0 0 1-.863-3.913c0-1.393.309-2.719.863-3.913a5.172 5.172 0 0 1 1.803 3.913"/>
        <path fill="#2E2EBF" d="M44.283 10.426c0 5.24-4.353 9.504-9.703 9.504a9.772 9.772 0 0 1-6.187-2.19 9.637 9.637 0 0 1-1.803-1.929 9.371 9.371 0 0 1-.85-1.472 5.172 5.172 0 0 0 1.802-3.913c0 1.187.309 2.305.852 3.28a6.943 6.943 0 0 0 1.802 2.105 7.1 7.1 0 0 0 4.384 1.506c3.879 0 7.035-3.092 7.035-6.89 0-3.8-3.156-6.89-7.035-6.89a7.1 7.1 0 0 0-4.384 1.504 9.58 9.58 0 0 0-1.803-1.929A9.772 9.772 0 0 1 34.58.922c5.35 0 9.703 4.264 9.703 9.504"/>
        <path fill="#2E2EBF" d="M34.58 13.04c-1.47 0-2.668-1.173-2.668-2.614 0-1.44 1.197-2.613 2.668-2.613s2.669 1.172 2.669 2.613-1.198 2.614-2.669 2.614m0-7.84a5.377 5.377 0 0 0-3.534 1.313 5.172 5.172 0 0 0-1.802 3.913c0 1.555.697 2.955 1.802 3.913a5.377 5.377 0 0 0 3.534 1.314c2.943 0 5.337-2.345 5.337-5.227S37.523 5.2 34.58 5.2"/>
    </g>
</svg>
